HIERARCHY
ROOT Hips
{
	OFFSET 46.809299 -31.412016 98.876190
	CHANNELS 6 Xposition Yposition Zposition Xrotation Yrotation Zrotation
	JOINT spine
	{
		OFFSET 0.000000 -0.477352 8.301041
		CHANNELS 3 Xrotation Yrotation Zrotation
		JOINT spine1
		{
			OFFSET 0.000000 -0.000002 10.456497
			CHANNELS 3 Xrotation Yrotation Zrotation
			JOINT spine2
			{
				OFFSET 0.000000 -0.000002 10.019203
				CHANNELS 3 Xrotation Yrotation Zrotation
				JOINT Neck
				{
					OFFSET 0.000000 -1.226416 25.723503
					CHANNELS 3 Xrotation Yrotation Zrotation
					JOINT Head
					{
						OFFSET 0.000000 0.000000 7.771744
						CHANNELS 3 Xrotation Yrotation Zrotation
						End Site
						{
							OFFSET 0.000000 6.203938 18.811996
						}
					}
				}
				JOINT RightShoulder
				{
					OFFSET -4.218800 0.587437 10.820000
					CHANNELS 3 Xrotation Yrotation Zrotation
					JOINT RightArm
					{
						OFFSET 0.000000 -0.000002 14.191406
						CHANNELS 3 Xrotation Yrotation Zrotation
						JOINT RightArmRoll
						{
							OFFSET 0.000000 -0.000002 7.164078
							CHANNELS 3 Xrotation Yrotation Zrotation
							JOINT RightForeArm
							{
								OFFSET 0.000000 -0.000002 20.866501
								CHANNELS 3 Xrotation Yrotation Zrotation
								JOINT RightForeArmRoll
								{
									OFFSET 0.000000 -0.000002 8.039215
									CHANNELS 3 Xrotation Yrotation Zrotation
									JOINT RightHand
									{
										OFFSET 0.000000 -0.000002 16.132996
										CHANNELS 3 Xrotation Yrotation Zrotation
										End Site
										{
											OFFSET 0.000000 -0.000002 0.100006
										}
									}
								}
							}
						}
					}
				}
				JOINT LeftShoulder
				{
					OFFSET 4.218800 0.587437 10.820000
					CHANNELS 3 Xrotation Yrotation Zrotation
					JOINT LeftArm
					{
						OFFSET 0.000000 -0.000002 14.191406
						CHANNELS 3 Xrotation Yrotation Zrotation
						JOINT LeftArmRoll
						{
							OFFSET 0.000000 -0.000002 7.164078
							CHANNELS 3 Xrotation Yrotation Zrotation
							JOINT LeftForeArm
							{
								OFFSET 0.000000 -0.000002 20.866501
								CHANNELS 3 Xrotation Yrotation Zrotation
								JOINT LeftForeArmRoll
								{
									OFFSET 0.000000 -0.000002 8.039215
									CHANNELS 3 Xrotation Yrotation Zrotation
									JOINT LeftHand
									{
										OFFSET 0.000000 -0.000002 16.132996
										CHANNELS 3 Xrotation Yrotation Zrotation
										End Site
										{
											OFFSET 0.000000 -0.000002 0.100006
										}
									}
								}
							}
						}
					}
				}
			}
		}
	}
	JOINT RightUpLeg
	{
		OFFSET -7.357731 1.131821 -1.349213
		CHANNELS 3 Xrotation Yrotation Zrotation
		JOINT RightUpLegRoll
		{
			OFFSET 0.000000 -0.000004 18.916801
			CHANNELS 3 Xrotation Yrotation Zrotation
			JOINT RightLeg
			{
				OFFSET 0.000000 0.000004 -23.425598
				CHANNELS 3 Xrotation Yrotation Zrotation
				JOINT RightLegRoll
				{
					OFFSET 0.000000 -0.000004 23.502304
					CHANNELS 3 Xrotation Yrotation Zrotation
					JOINT RightFoot
					{
						OFFSET 0.000000 -0.000004 19.561714
						CHANNELS 3 Xrotation Yrotation Zrotation
						JOINT RightToeBase
						{
							OFFSET 0.000000 -0.000002 16.352600
							CHANNELS 3 Xrotation Yrotation Zrotation
							End Site
							{
								OFFSET 0.006931 0.912834 7.919434
							}
						}
					}
				}
			}
		}
	}
	JOINT LeftUpLeg
	{
		OFFSET 7.357731 1.131821 -1.349213
		CHANNELS 3 Xrotation Yrotation Zrotation
		JOINT LeftUpLegRoll
		{
			OFFSET 0.000000 -0.000004 18.916901
			CHANNELS 3 Xrotation Yrotation Zrotation
			JOINT LeftLeg
			{
				OFFSET 0.000000 -0.000004 23.425507
				CHANNELS 3 Xrotation Yrotation Zrotation
				JOINT LeftLegRoll
				{
					OFFSET 0.000000 -0.000004 23.719498
					CHANNELS 3 Xrotation Yrotation Zrotation
					JOINT LeftFoot
					{
						OFFSET 0.000000 -0.000004 19.344406
						CHANNELS 3 Xrotation Yrotation Zrotation
						JOINT LeftToeBase
						{
							OFFSET 0.000000 -0.000002 16.352600
							CHANNELS 3 Xrotation Yrotation Zrotation
							End Site
							{
								OFFSET -0.031063 0.912834 7.919434
							}
						}
					}
				}
			}
		}
	}
}
MOTION
Frames: 9
Frame Time: 0.041667
46.840199 -31.541912 98.907486 1.007961 0.211644 -0.757683 -2.739773 0.030008 -0.054008 -1.476871 0.058213 -0.103717 0.168213 0.056965 -0.104405 22.589871 -0.460326 0.258497 -0.647071 -0.151997 0.254156 -14.476043 -38.595562 -16.431016 46.545192 -40.836618 86.123604 0.000001 0.000001 0.000000 1.476314 6.585742 2.428916 0.000006 0.000012 -3.008258 -5.000218 -8.000104 -0.000172 -13.462895 43.412078 15.292391 43.655301 44.700620 -81.492394 -0.000002 0.000005 -0.000013 1.920897 -6.677552 0.101276 0.000009 -0.000011 3.000009 -5.000200 8.000105 0.000165 -3.218816 -176.017267 0.215755 -179.999991 0.000005 -1.040001 173.946176 -3.492459 -0.634151 0.000003 0.000004 0.066399 69.352518 6.911343 2.067840 25.456957 -7.355614 0.000002 -3.892096 174.170384 0.751577 -0.000005 -0.000005 -1.117640 -11.095909 3.244313 1.070427 -0.000008 -0.000002 -0.166111 69.675654 -6.916335 -2.011089 25.456959 7.355613 0.000000 
46.815601 -31.532509 98.900795 1.014997 0.215547 -0.765075 -2.740561 0.028771 -0.054106 -1.478511 0.054511 -0.102858 0.166566 0.053274 -0.103502 22.566877 -0.430798 0.257271 -0.623842 -0.178860 0.256898 -14.481703 -38.572100 -16.437675 46.591302 -40.818320 86.178580 0.000000 -0.000000 -0.000001 1.429049 6.609225 2.435191 0.000006 0.000013 -3.008258 -5.000216 -8.000105 -0.000174 -13.459632 43.419359 15.288402 43.636839 44.697571 -81.472074 -0.000002 0.000005 -0.000014 1.913761 -6.667623 0.101416 0.000009 -0.000011 3.000015 -5.000197 8.000106 0.000160 -3.220986 -176.023264 0.211838 -179.999991 0.000005 -1.040001 173.957651 -3.492533 -0.633451 0.000003 0.000004 0.066425 69.346146 6.911264 2.067725 25.456957 -7.355615 -0.000000 -3.923696 174.163622 0.752542 -0.000005 -0.000005 -1.117640 -11.141156 3.241788 1.072186 -0.000007 -0.000002 -0.166917 69.699792 -6.916294 -2.009679 25.456955 7.355614 -0.000000 
46.833401 -31.549612 98.933586 1.022447 0.219876 -0.773022 -2.741291 0.027413 -0.054150 -1.480061 0.050517 -0.101834 0.165021 0.049293 -0.102430 22.540178 -0.399403 0.256034 -0.597195 -0.207470 0.259896 -14.488832 -38.546958 -16.446254 46.641808 -40.796956 86.238631 -0.000000 0.000003 0.000004 1.376169 6.634993 2.442155 0.000005 0.000013 -3.008262 -5.000215 -8.000108 -0.000174 -13.456254 43.426360 15.284247 43.618387 44.693992 -81.451502 -0.000003 0.000003 -0.000011 1.905078 -6.656862 0.101556 0.000009 -0.000011 3.000014 -5.000197 8.000107 0.000165 -3.222024 -176.032266 0.204890 -179.999991 0.000005 -1.040001 173.972363 -3.489653 -0.632242 0.000003 0.000004 0.066450 69.339350 6.911163 2.067628 25.456955 -7.355615 0.000001 -3.957225 174.155863 0.753217 -0.000004 -0.000004 -1.117640 -11.189308 3.239300 1.074034 -0.000008 -0.000002 -0.167750 69.725112 -6.916313 -2.008202 25.456955 7.355613 -0.000001 
46.828400 -31.548208 98.926079 1.030216 0.224523 -0.781396 -2.741979 0.025965 -0.054151 -1.481521 0.046324 -0.100691 0.163563 0.045113 -0.101237 22.510791 -0.366755 0.254846 -0.568037 -0.237235 0.263118 -14.497148 -38.520682 -16.456364 46.695428 -40.773207 86.302329 -0.000001 -0.000002 -0.000003 1.319139 6.662450 2.449638 0.000006 0.000013 -3.008258 -5.000216 -8.000110 -0.000175 -13.452891 43.433149 15.280106 43.599638 44.689900 -81.430437 -0.000001 0.000005 -0.000018 1.895179 -6.645529 0.101706 0.000009 -0.000013 3.000012 -5.000196 8.000105 0.000163 -3.222164 -176.042238 0.195426 -179.999991 0.000006 -1.039003 173.989575 -3.483785 -0.631577 0.000003 0.000004 0.066476 69.332335 6.911052 2.067446 25.456957 -7.355616 0.000002 -3.991868 174.147120 0.753593 -0.000004 -0.000004 -1.117640 -11.238964 3.236920 1.075916 -0.000008 -0.000003 -0.168593 69.751183 -6.916303 -2.006674 25.456957 7.355613 -0.000001 
46.814899 -31.537010 98.901192 1.038167 0.229384 -0.790069 -2.742640 0.024460 -0.054117 -1.482901 0.042023 -0.099476 0.162175 0.040827 -0.099971 22.479602 -0.333474 0.253763 -0.537280 -0.267567 0.266533 -14.506246 -38.493816 -16.467480 46.751200 -40.747782 86.368439 -0.000001 0.000001 -0.000001 1.259429 6.690988 2.457485 0.000006 0.000014 -3.008258 -5.000218 -8.000109 -0.000171 -13.449670 43.439624 15.276130 43.581040 44.685430 -81.409530 -0.000002 0.000004 -0.000014 1.884362 -6.633861 0.101852 0.000010 -0.000012 3.000011 -5.000197 8.000105 0.000166 -3.221651 -176.053235 0.184070 -179.999991 0.000005 -1.039003 174.008508 -3.476949 -0.630695 0.000003 0.000004 0.066503 69.325211 6.910934 2.067169 25.456955 -7.355616 0.000001 -4.026774 174.138405 0.753587 -0.000005 -0.000004 -1.117640 -11.289023 3.234730 1.077804 -0.000008 -0.000002 -0.169426 69.777137 -6.916268 -2.005252 25.456957 7.355613 -0.000001 
46.805603 -31.540205 98.912582 1.046199 0.234351 -0.798914 -2.743280 0.022928 -0.054056 -1.484230 0.037708 -0.098237 0.160844 0.036528 -0.098680 22.447526 -0.300175 0.252835 -0.505835 -0.297877 0.270105 -14.515863 -38.466980 -16.479242 46.807730 -40.721280 86.435498 0.000001 0.000001 -0.000002 1.198495 6.719986 2.465537 0.000006 0.000014 -3.008258 -5.000215 -8.000109 -0.000176 -13.446716 43.445672 15.272477 43.562721 44.680724 -81.389087 -0.000001 0.000004 -0.000015 1.872939 -6.622125 0.102005 0.000010 -0.000011 3.000011 -5.000197 8.000106 0.000163 -3.220728 -176.066199 0.171504 -179.999991 0.000005 -1.039003 174.028494 -3.467131 -0.629442 0.000002 0.000004 0.066530 69.317992 6.910847 2.066903 25.456957 -7.355614 0.000001 -4.061125 174.128665 0.753260 -0.000005 -0.000004 -1.117650 -11.338082 3.232804 1.079643 -0.000007 -0.000002 -0.170229 69.802354 -6.916265 -2.003778 25.456957 7.355613 -0.000001 
46.812901 -31.527710 98.894493 1.054182 0.239315 -0.807803 -2.743912 0.021400 -0.053977 -1.485520 0.033472 -0.097020 0.159555 0.032307 -0.097412 22.415658 -0.267476 0.252115 -0.474623 -0.327573 0.273797 -14.525430 -38.440544 -16.491015 46.863793 -40.694469 86.502044 0.000001 0.000001 0.000001 1.137835 6.748852 2.473608 0.000005 0.000014 -3.008261 -5.000216 -8.000106 -0.000172 -13.444136 43.451181 15.269289 43.544891 44.675776 -81.369369 -0.000001 0.000004 -0.000015 1.861249 -6.610561 0.102161 0.000011 -0.000011 3.000015 -5.000195 8.000107 0.000161 -3.219641 -176.078179 0.158186 -179.999991 0.000005 -1.039003 174.048697 -3.458305 -0.628286 0.000002 0.000004 0.066557 69.311086 6.910735 2.066613 25.456955 -7.355616 0.000001 -4.094092 174.119950 0.752455 -0.000005 -0.000004 -1.117650 -11.384841 3.231236 1.081395 -0.000007 -0.000002 -0.170985 69.826199 -6.916264 -2.002392 25.456955 7.355612 -0.000000 
46.806801 -31.530312 98.898987 1.061991 0.244173 -0.816611 -2.744542 0.019909 -0.053889 -1.486790 0.029408 -0.095871 0.158292 0.028257 -0.096215 22.384799 -0.235994 0.251647 -0.444542 -0.356068 0.277564 -14.534709 -38.415245 -16.502444 46.918431 -40.668049 86.566897 -0.000000 0.000001 0.000001 1.078899 6.776971 2.481532 0.000006 0.000013 -3.008258 -5.000216 -8.000108 -0.000173 -13.442077 43.456215 15.266748 43.527839 44.670769 -81.350859 -0.000002 0.000003 -0.000013 1.849579 -6.599441 0.102325 0.000010 -0.000012 3.000013 -5.000196 8.000108 0.000163 -3.218640 -176.091156 0.144853 -179.999991 0.000006 -1.039003 174.068382 -3.447489 -0.626961 0.000002 0.000004 0.066585 69.304393 6.910634 2.066312 25.456957 -7.355616 0.000000 -4.124830 174.111193 0.751230 -0.000005 -0.000005 -1.117650 -11.428102 3.230098 1.083021 -0.000008 -0.000002 -0.171673 69.848151 -6.916261 -2.001022 25.456962 7.355613 -0.000000 
46.794998 -31.525814 98.899193 1.069509 0.248817 -0.825209 -2.745179 0.018485 -0.053801 -1.488040 0.025608 -0.094837 0.157041 0.024469 -0.095136 22.356054 -0.206347 0.251475 -0.416508 -0.382775 0.281364 -14.543418 -38.391595 -16.513133 46.970176 -40.642699 86.628416 0.000001 0.000001 0.000000 1.023176 6.803736 2.489125 0.000006 0.000013 -3.008260 -5.000215 -8.000108 -0.000174 -13.440672 43.460682 15.265041 43.511467 44.665752 -81.333578 -0.000001 0.000003 -0.000018 1.838256 -6.588991 0.102483 0.000009 -0.000012 3.000010 -5.000196 8.000103 0.000164 -3.217958 -176.103136 0.132022 -179.999991 0.000005 -1.039003 174.086810 -3.438649 -0.625938 0.000003 0.000004 0.066614 69.298123 6.910552 2.065988 25.456955 -7.355614 0.000001 -4.152522 174.102424 0.749572 -0.000005 -0.000005 -1.117650 -11.466456 3.229475 1.084471 -0.000007 -0.000002 -0.172275 69.867323 -6.916227 -1.999922 25.456953 7.355613 -0.000001 
